<?xml version="1.0" encoding="iso-8859-1"?>
<!-- Generator: Adobe Illustrator 21.0.0, SVG Export Plug-In . SVG Version: 6.00 Build 0)  -->
<svg version="1.1" id="Capa_1" xmlns="http://www.w3.org/2000/svg" xmlns:xlink="http://www.w3.org/1999/xlink" x="0px" y="0px"
	 viewBox="0 0 512.005 512.005" style="enable-background:new 0 0 512.005 512.005;" xml:space="preserve">
<g transform="translate(-1)">
	<g transform="translate(1)">
		<path style="fill:#A4C2F7;" d="M492.982,489.05c-4.261,8.844-13.223,14.454-23.04,14.421H42.081
			c-7.989,0.016-15.527-3.699-20.381-10.043c-4.855-6.344-6.469-14.591-4.365-22.298l22.955-84.053l12.288-45.141L80.225,240.73
			c3.036-11.122,13.132-18.843,24.661-18.859h302.251c11.529,0.016,21.625,7.736,24.661,18.859l10.837,39.68l14.848,54.272
			l37.205,136.448C496.346,477.109,495.738,483.49,492.982,489.05z"/>
		<g>
			<path style="fill:#E3E7F2;" d="M469.174,481.114c-0.422,2.755-1.256,5.43-2.475,7.936c-4.261,8.844-13.223,14.454-23.04,14.421
				H42.081c-7.989,0.016-15.527-3.699-20.381-10.043c-4.855-6.344-6.469-14.591-4.365-22.298l22.955-84.053l12.288-45.141
				L80.225,240.73c3.036-11.122,13.132-18.843,24.661-18.859h275.968c11.529,0.016,21.625,7.736,24.661,18.859l10.837,39.68
				l6.485,23.723l8.363,30.549l6.485,23.808l30.72,112.64C469.29,474.379,469.551,477.767,469.174,481.114z"/>
			<path style="fill:#E3E7F2;" d="M150.113,423.77l-66.475,79.701H42.081c-7.989,0.016-15.527-3.699-20.381-10.043
				c-4.855-6.344-6.469-14.591-4.365-22.298l22.955-84.053L150.113,423.77z"/>
		</g>
		<path style="fill:#A4C2F7;" d="M492.982,489.05l-20.992-6.997l-62.464-20.907h-0.085l-44.885-14.933l75.435-90.539l17.493-20.992
			l37.205,136.448C496.346,477.109,495.738,483.49,492.982,489.05z"/>
		<path style="fill:#E3E7F2;" d="M471.99,482.052l-62.464-20.907h-0.085l-44.885-14.933l75.435-90.539l31.488,115.456
			C472.45,474.689,472.625,478.418,471.99,482.052z"/>
		<path style="fill:#A4C2F7;" d="M492.982,489.05c-4.261,8.844-13.223,14.454-23.04,14.421H388.62l-103.168-34.475l-88.405-29.525
			l-5.12,6.144l-48.213,57.856H83.638l66.475-79.701L40.289,387.076l10.325-37.888l1.963-7.253l194.475,65.024l7.168,2.389
			l44.8,15.019l18.517,6.144l105.301-126.379l1.963-2.389l17.835-21.333l14.848,54.272l-19.797,23.808l-73.131,87.723l44.885,14.933
			h0.085l59.648,19.968L492.982,489.05z"/>
		<path style="fill:#E3E7F2;" d="M469.345,489.05c-4.261,8.844-13.223,14.454-23.04,14.421h-81.323l-103.168-34.475l-69.888-23.381
			l-18.517-6.144l-53.333,64H83.638l66.475-79.701L40.289,387.076l10.325-37.888l172.8,57.771l7.168,2.389l63.317,21.163l5.12-6.144
			l18.517,6.144l105.301-126.379l1.963-2.389l9.045,32.939l-19.797,23.808l-73.131,87.723l44.885,14.933h0.085l59.648,19.968
			L469.345,489.05z"/>
		<path style="fill:#A4C2F7;" d="M392.545,145.071c0,103.68-89.515,218.539-123.563,258.475c-3.235,3.723-7.915,5.875-12.847,5.908
			c-4.932,0.033-9.64-2.057-12.924-5.737l-0.256-0.256c-35.755-41.984-132.352-166.144-122.795-273.408
			C126.783,65.539,178.267,14.807,242.87,9.135h0.171c5.075-0.499,10.176-0.698,15.275-0.597
			C332.82,9.795,392.556,70.556,392.545,145.071z"/>
		<path style="fill:#E3E7F2;" d="M366.945,145.071c0,103.68-89.515,218.539-123.563,258.475l-0.171,0.171l-0.256-0.256
			c-35.755-41.984-132.352-166.144-122.795-273.408C126.783,65.539,178.267,14.807,242.87,9.135h0.171
			C313.246,15.657,366.939,74.563,366.945,145.071z"/>
		<path style="fill:#A4C2F7;" d="M356.876,177.668c-2.975,6.155-9.207,10.067-16.043,10.069H171.02
			c-2.31,0.05-4.545-0.822-6.21-2.423c-1.665-1.601-2.624-3.8-2.665-6.11v-42.667h188.416c0.939,3.925,1.877,7.765,2.816,11.691
			C355.51,157.018,361.057,168.879,356.876,177.668z"/>
		<path style="fill:#E3E7F2;" d="M331.276,177.668c-2.975,6.155-9.207,10.067-16.043,10.069H171.02
			c-2.31,0.05-4.545-0.822-6.21-2.423c-1.665-1.601-2.624-3.8-2.665-6.11v-42.667h162.816c0.939,3.925,1.877,7.765,2.816,11.691
			C329.91,157.018,335.457,168.879,331.276,177.668z"/>
		<path style="fill:#A4C2F7;" d="M350.561,136.538h-60.416V93.871h35.925c6.321-0.103,12.175,3.317,15.189,8.875
			c1.842,3.735,3.19,7.693,4.011,11.776C346.977,121.86,348.769,129.199,350.561,136.538z"/>
		<g>
			<path style="fill:#E3E7F2;" d="M324.961,136.538h-60.416V93.871h35.925c6.321-0.103,12.175,3.317,15.189,8.875
				c1.842,3.735,3.19,7.693,4.011,11.776C321.377,121.86,323.169,129.199,324.961,136.538z"/>
			<rect x="247.478" y="93.871" style="fill:#E3E7F2;" width="42.667" height="42.667"/>
			<path style="fill:#E3E7F2;" d="M204.812,93.871v42.667h-42.667v-34.133c0.04-2.31,0.999-4.509,2.665-6.11
				c1.665-1.601,3.9-2.473,6.21-2.423H204.812z"/>
			<rect x="204.812" y="93.871" style="fill:#E3E7F2;" width="42.667" height="42.667"/>
		</g>
		<g>
			<circle style="fill:#A4C2F7;" cx="217.612" cy="192.004" r="21.333"/>
			<circle style="fill:#A4C2F7;" cx="302.945" cy="192.004" r="21.333"/>
		</g>
		<g>
			<path style="fill:#FFFFFF;" d="M17.334,471.13c-2.104,7.707-0.489,15.954,4.365,22.298c4.855,6.344,12.393,10.059,20.381,10.043
				h25.6c-7.989,0.016-15.527-3.699-20.381-10.043c-4.855-6.344-6.469-14.591-4.365-22.298l22.955-84.053l12.288-45.141
				l27.648-101.205c3.036-11.122,13.132-18.843,24.661-18.859h-25.6c-11.529,0.016-21.625,7.736-24.661,18.859L52.577,341.935
				l-12.288,45.141L17.334,471.13z"/>
			<path style="fill:#FFFFFF;" d="M159.013,221.871c-10.684-29.369-15.195-60.627-13.252-91.819
				c6.607-64.355,57.871-115.015,122.3-120.858c-3.234-0.29-6.451-0.597-9.745-0.657c-5.099-0.101-10.199,0.099-15.275,0.597h-0.171
				c-64.604,5.672-116.088,56.404-122.709,120.917c-1.943,31.192,2.569,62.449,13.252,91.819H159.013z"/>
		</g>
	</g>
	<g>
		<path style="fill:#FFFFFF;" d="M105.895,230.404c-6.31,0.019-12.098,3.508-15.061,9.079c-0.773,1.495-1.347,3.084-1.707,4.727
			l-1.818,6.69l-3.686,13.38l-14.592,53.513L26.612,473.382l-16.461-4.488l42.411-155.588l14.601-53.513l3.644-13.38l1.826-6.69
			c0.707-2.857,1.756-5.619,3.123-8.226c5.929-11.148,17.513-18.127,30.14-18.159V230.404z"/>
		<g>
			<path style="fill:#428DFF;" d="M69.782,282.62c2.181,0.62,4.52,0.336,6.49-0.787c1.97-1.124,3.404-2.993,3.98-5.186
				c0.567-2.187,0.283-4.508-0.794-6.494l-0.964-1.348c-0.373-0.437-0.804-0.822-1.28-1.143c-0.399-0.368-0.854-0.671-1.348-0.896
				c-0.517-0.241-1.051-0.446-1.596-0.614c-2.19-0.562-4.512-0.279-6.502,0.794c-2.524,1.378-4.167,3.951-4.358,6.821
				c-0.19,2.869,1.1,5.637,3.419,7.336C67.705,281.796,68.708,282.312,69.782,282.62z"/>
			<path style="fill:#428DFF;" d="M500.621,494.349c0.273-0.381,0.516-0.783,0.725-1.203c3.845-7.486,4.758-16.137,2.56-24.26
				l-62.848-230.4c-4.067-14.838-17.545-25.13-32.93-25.148h-16.845c6.856-22.12,10.491-45.111,10.795-68.267
				C401.745,66.048,338.484,1.693,259.478,0.004h-2.466c-74.257-0.567-136.775,55.411-144.384,129.28
				c-1.945,28.401,1.471,56.915,10.069,84.053h-16.802c-7.656,0.005-15.089,2.583-21.103,7.322
				c-5.927,4.704-10.15,11.22-12.023,18.551c-0.802,2.942,0.027,6.088,2.174,8.254c2.147,2.165,5.286,3.021,8.235,2.244
				c2.949-0.777,5.259-3.067,6.061-6.009c1.797-7.758,8.693-13.263,16.657-13.295h22.391
				c22.426,62.908,63.283,121.421,92.74,158.515L63.954,336.405l7.322-26.846c1.239-4.557-1.45-9.257-6.007-10.496
				c-4.557-1.24-9.257,1.45-10.496,6.007l-9.31,34.133v0.068L10.134,468.868c-2.807,10.266-0.665,21.255,5.794,29.715
				s16.493,13.423,27.137,13.421H470.96c10.648,0.039,20.695-4.929,27.127-13.414C499.032,497.238,499.879,495.821,500.621,494.349z
				 M487.966,478.042l-74.726-24.986c-0.205-0.068-0.41-0.128-0.631-0.179l-32.486-10.846l74.411-89.301l32.879,120.653
				C487.811,474.902,487.998,476.47,487.966,478.042z M408.129,230.404c7.695,0.002,14.437,5.154,16.461,12.578l9.643,35.371
				L315.713,420.57l-38.212-12.8c27.921-32.862,81.263-101.914,108.177-177.365H408.129z M250.484,397.879
				c-30.72-36.019-130.176-161.741-120.858-267.093c6.799-65.076,61.959-114.316,127.386-113.715h2.202
				c69.701,1.503,125.505,58.283,125.798,128c-0.435,24.936-4.857,49.643-13.099,73.182c-0.149,0.372-0.272,0.754-0.367,1.143
				c-25.446,75.546-80.538,146.27-108.083,178.577c-1.591,1.889-3.939,2.974-6.409,2.961c-0.068,0-0.128-0.043-0.205-0.043
				l-4.318-1.442C251.774,399.032,251.084,398.503,250.484,397.879z M29.496,488.23c-3.241-4.221-4.309-9.72-2.884-14.848
				l20.548-75.349l89.412,29.867l-55.927,67.038H43.098C37.762,494.966,32.723,492.481,29.496,488.23z M200.871,449.412
				l136.277,45.525H162.932L200.871,449.412z M390.985,494.938l-190.293-63.565h-0.119c-0.66-0.159-1.335-0.242-2.014-0.247
				c-0.423-0.077-0.851-0.125-1.28-0.145c-0.522,0.092-1.033,0.235-1.527,0.427c-0.545,0.104-1.079,0.259-1.596,0.461
				c-0.328,0.222-0.641,0.464-0.939,0.725c-0.622,0.374-1.196,0.824-1.707,1.34l-0.094,0.077l-50.705,60.928h-37.845l54.793-65.707
				c0.032-0.052,0.06-0.106,0.085-0.162c0.636-0.759,1.13-1.626,1.459-2.56v-0.102c0.199-0.754,0.294-1.532,0.282-2.313
				c0-0.341,0.128-0.674,0.102-0.998c-0.098-0.583-0.256-1.155-0.469-1.707c-0.095-0.49-0.235-0.97-0.418-1.434
				c-0.2-0.338-0.426-0.66-0.674-0.964c-0.379-0.626-0.838-1.199-1.365-1.707l-0.077-0.094c-0.411-0.277-0.849-0.515-1.306-0.708
				c-0.453-0.334-0.939-0.62-1.451-0.853L51.649,381.495l7.817-28.646l185.796,62.114c2.37,1.251,4.926,2.116,7.569,2.56
				l62.848,21.009l0.145,0.043c0.871,0.299,1.785,0.452,2.705,0.452c1.096-0.024,2.178-0.262,3.183-0.7
				c0.266-0.115,0.526-0.246,0.777-0.393c0.837-0.433,1.591-1.011,2.227-1.707c0.111-0.111,0.265-0.154,0.375-0.282l114.628-137.498
				l9.335,34.227l-90.061,108.075c-0.303,0.452-0.563,0.932-0.777,1.434c-0.297,0.42-0.552,0.869-0.759,1.34v0.102
				c-0.193,0.735-0.285,1.493-0.273,2.253c-0.058,0.35-0.095,0.704-0.111,1.058c0.096,0.584,0.253,1.156,0.469,1.707
				c0.099,0.501,0.242,0.992,0.427,1.468c0.216,0.325,0.452,0.636,0.708,0.93c0.377,0.625,0.833,1.198,1.357,1.707l0.068,0.085
				c0.805,0.665,1.724,1.177,2.714,1.51h0.06l44.894,14.933c0.196,0.068,0.393,0.119,0.597,0.171l70.511,23.535
				c-2.428,1.282-5.131,1.952-7.876,1.954H390.985z"/>
			<path style="fill:#428DFF;" d="M274.514,196.271c2.038,14.697,14.602,25.64,29.44,25.64c14.838,0,27.402-10.943,29.44-25.64
				h8.457c10.143,0.035,19.395-5.785,23.757-14.942c3.265-9.621,2.805-20.116-1.289-29.414c-0.606-1.997-1.195-3.917-1.63-5.7
				l-1.34-5.521c-2.278-9.387-4.548-18.722-6.827-28.288l-0.265-1.007c-0.945-4.48-2.492-8.812-4.599-12.877
				c-4.518-8.228-13.202-13.297-22.588-13.184H172.02c-9.516-0.085-17.305,7.551-17.408,17.067v76.8
				c0.103,9.516,7.892,17.152,17.408,17.067h17.161c2.038,14.697,14.602,25.64,29.44,25.64c14.838,0,27.402-10.943,29.44-25.64
				H274.514z M303.945,204.804c-7.069,0-12.8-5.731-12.8-12.8c0-7.069,5.731-12.8,12.8-12.8s12.8,5.731,12.8,12.8
				C316.745,199.074,311.014,204.804,303.945,204.804z M257.012,128.004v-25.6h25.6v25.6H257.012z M214.345,128.004v-25.6h25.6v25.6
				H214.345z M197.278,102.404v25.6h-25.37l0.111-25.6H197.278z M171.678,179.204l0.154-34.133h144.913
				c4.713,0,8.533-3.821,8.533-8.533c0-4.713-3.821-8.533-8.533-8.533h-17.067v-25.6h27.392c3.231-0.11,6.24,1.641,7.74,4.506
				c1.328,2.762,2.311,5.676,2.927,8.678l0.222,0.853c2.219,9.446,4.497,18.833,6.827,28.254l1.34,5.521
				c0.503,2.082,1.186,4.318,1.894,6.647c2.406,5.385,3.158,11.364,2.159,17.178c-1.594,3.124-4.796,5.098-8.303,5.12h-11.059
				c-4.888-10.426-15.365-17.085-26.88-17.085c-11.515,0-21.992,6.659-26.88,17.085h-31.573
				c-4.888-10.426-15.365-17.085-26.88-17.085c-11.515,0-21.992,6.659-26.88,17.085L171.678,179.204z M218.612,204.804
				c-7.069,0-12.8-5.731-12.8-12.8c0-7.069,5.731-12.8,12.8-12.8c7.069,0,12.8,5.731,12.8,12.8
				C231.412,199.074,225.681,204.804,218.612,204.804z"/>
		</g>
	</g>
</g>
<g>
</g>
<g>
</g>
<g>
</g>
<g>
</g>
<g>
</g>
<g>
</g>
<g>
</g>
<g>
</g>
<g>
</g>
<g>
</g>
<g>
</g>
<g>
</g>
<g>
</g>
<g>
</g>
<g>
</g>
</svg>
