<svg height="512" viewBox="0 0 512 512" width="512" xmlns="http://www.w3.org/2000/svg"><g id="Filled_outline" data-name="Filled outline"><path d="m344 408h96a0 0 0 0 1 0 0v64a16 16 0 0 1 -16 16h-64a16 16 0 0 1 -16-16v-64a0 0 0 0 1 0 0z" fill="#4d5e78"/><path d="m344 408h96v48h-96z" fill="#44546c"/><path d="m72 408h96a0 0 0 0 1 0 0v64a16 16 0 0 1 -16 16h-64a16 16 0 0 1 -16-16v-64a0 0 0 0 1 0 0z" fill="#4d5e78"/><path d="m72 408h96v48h-96z" fill="#44546c"/><path d="m120 24h272a48 48 0 0 1 48 48v336a32 32 0 0 1 -32 32h-304a32 32 0 0 1 -32-32v-336a48 48 0 0 1 48-48z" fill="#348fd9"/><rect fill="#60d1e0" height="224" rx="24" width="368" x="72" y="104"/><rect fill="#60d1e0" height="224" rx="24" width="368" x="72" y="104"/><g fill="#ffb531"><circle cx="120" cy="64" r="16"/><circle cx="168" cy="64" r="16"/><circle cx="344" cy="64" r="16"/></g><path d="m72 152v112h-32a15.982 15.982 0 0 1 -16-16v-80a16 16 0 0 1 16-16z" fill="#4d5e78"/><path d="m488 168v80a16 16 0 0 1 -16 16h-32v-112h32a15.993 15.993 0 0 1 16 16z" fill="#4d5e78"/><path d="m488 168v80a16 16 0 0 1 -16 16h-32v-14.87a427.1 427.1 0 0 0 43.98-91.74 15.967 15.967 0 0 1 4.02 10.61z" fill="#44546c"/><path d="m72 187.48v76.52h-32a15.966 15.966 0 0 1 -10.56-3.97 580.649 580.649 0 0 0 42.56-72.55z" fill="#44546c"/><path d="m416 328h-40v80a32 32 0 0 1 -32 32h64a32 32 0 0 0 32-32v-104a24 24 0 0 1 -24 24z" fill="#3086cd"/><path d="m392 24h-64a48 48 0 0 1 48 48v32h40a24 24 0 0 1 24 24v-56a48 48 0 0 0 -48-48z" fill="#3086cd"/><path d="m416 104h-40v224h40a24 24 0 0 0 24-24v-176a24 24 0 0 0 -24-24z" fill="#5ac6d4"/><circle cx="392" cy="64" fill="#ffb531" r="16"/><circle cx="128" cy="384" fill="#ffb531" r="24"/><circle cx="384" cy="384" fill="#ffb531" r="24"/><path d="m96 288h112v16h-112z" fill="#d6d6d4"/><path d="m272 288h112v16h-112z" fill="#d6d6d4"/><rect fill="#e0e0de" height="64.498" rx="7.999" transform="matrix(.496 -.868 .868 .496 -184.228 306.542)" width="15.999" x="164.001" y="279.751"/><rect fill="#e0e0de" height="64.498" rx="7.999" transform="matrix(.496 -.868 .868 .496 -95.548 459.353)" width="15.999" x="340.001" y="279.751"/><path d="m128 352a32 32 0 1 0 32 32 32.036 32.036 0 0 0 -32-32zm0 48a16 16 0 1 1 16-16 16.016 16.016 0 0 1 -16 16z"/><path d="m384 352a32 32 0 1 0 32 32 32.036 32.036 0 0 0 -32-32zm0 48a16 16 0 1 1 16-16 16.016 16.016 0 0 1 -16 16z"/><circle cx="120" cy="64" r="16"/><circle cx="168" cy="64" r="16"/><circle cx="344" cy="64" r="16"/><circle cx="392" cy="64" r="16"/><path d="m472 144h-24v-72a56.063 56.063 0 0 0 -56-56h-272a56.063 56.063 0 0 0 -56 56v72h-24a24.027 24.027 0 0 0 -24 24v80a24.027 24.027 0 0 0 24 24h24v200a24.027 24.027 0 0 0 24 24h64a24.027 24.027 0 0 0 24-24v-24h160v24a24.027 24.027 0 0 0 24 24h64a24.027 24.027 0 0 0 24-24v-200h24a24.027 24.027 0 0 0 24-24v-80a24.027 24.027 0 0 0 -24-24zm-93.877 176-28-16h33.877v-16h-112v16h45.877l28 16h-143.754l-28-16h33.877v-16h-112v16h45.877l28 16h-73.877a16.016 16.016 0 0 1 -16-16v-176a16.016 16.016 0 0 1 16-16h320a16.016 16.016 0 0 1 16 16v176a16.016 16.016 0 0 1 -16 16zm-258.123-288h272a40.047 40.047 0 0 1 40 40v28.452a31.624 31.624 0 0 0 -16-4.452h-320a31.624 31.624 0 0 0 -16 4.452v-28.452a40.047 40.047 0 0 1 40-40zm-80 224a8.011 8.011 0 0 1 -8-8v-80a8.011 8.011 0 0 1 8-8h24v96zm40 216v-32.2a39.636 39.636 0 0 0 16 7.4v32.8h-8a8.011 8.011 0 0 1 -8-8zm32-24h16v32h-16zm48 24a8.011 8.011 0 0 1 -8 8h-8v-32h16zm192 0v-24h16v32h-8a8.011 8.011 0 0 1 -8-8zm48 8h-16v-32h16zm24 0h-8v-32.809a39.636 39.636 0 0 0 16-7.4v32.209a8.011 8.011 0 0 1 -8 8zm-16-48h-304a24.027 24.027 0 0 1 -24-24v-76.452a31.624 31.624 0 0 0 16 4.452h320a31.624 31.624 0 0 0 16-4.452v76.452a24.027 24.027 0 0 1 -24 24zm72-184a8.011 8.011 0 0 1 -8 8h-24v-96h24a8.011 8.011 0 0 1 8 8z"/><path d="m96 128h16v16h-16z"/><path d="m96 160h16v96h-16z"/><path d="m176 360h160v16h-160z"/><path d="m176 392h160v16h-160z"/></g></svg>