<svg height="442pt" viewBox="-53 0 442 442" width="442pt" xmlns="http://www.w3.org/2000/svg"><path d="m42 396v-26h-30v26c.019531 18.769531 15.230469 33.980469 34 34h30c-18.769531-.019531-33.980469-15.230469-34-34zm0 0" fill="#d4e1f4"/><path d="m42 46c.019531-18.769531 15.230469-33.980469 34-34h-30c-18.769531.019531-33.980469 15.230469-34 34v14h30zm0 0" fill="#d4e1f4"/><path d="m12 72h30v286h-30zm0 0" fill="#d4e1f4"/><path d="m46 0c-25.394531.0273438-45.9726562 20.605469-46 46v350c.0273438 25.394531 20.605469 45.972656 46 46h160c25.394531-.027344 45.972656-20.605469 46-46v-75h-12v37h-228v-286h163c3.3125 0 6-2.6875 6-6s-2.6875-6-6-6h-163v-14c.019531-18.769531 15.230469-33.980469 34-34h160c18.769531.019531 33.980469 15.230469 34 34v14h-14c-3.3125 0-6 2.6875-6 6s2.6875 6 6 6h14v48.839844h12v-74.839844c-.027344-25.394531-20.605469-45.9726562-46-46zm194 370v26c-.019531 18.769531-15.230469 33.980469-34 34h-160c-18.769531-.019531-33.980469-15.230469-34-34v-26zm0 0" fill="#0635c9"/><path d="m194.695312 60c-3.316406 0-6 2.6875-6 6s2.683594 6 6 6h11.117188c3.3125 0 6-2.6875 6-6s-2.6875-6-6-6zm0 0" fill="#0635c9"/><path d="m126 421c11.597656 0 21-9.402344 21-21s-9.402344-21-21-21-21 9.402344-21 21c.011719 11.59375 9.40625 20.988281 21 21zm0-30c4.96875 0 9 4.03125 9 9s-4.03125 9-9 9-9-4.03125-9-9c.003906-4.96875 4.03125-8.996094 9-9zm0 0" fill="#0635c9"/><g fill="#1ae5be"><path d="m182 330.878906h128c14.351562-.015625 25.984375-11.644531 26-26v-88.800781c-.015625-14.351563-11.648438-25.980469-26-26h-2v-39.359375c-.023438-21.859375-17.738281-39.574219-39.601562-39.597656h-44.796876c-21.863281.023437-39.578124 17.738281-39.601562 39.597656v39.359375h-2c-14.351562.019531-25.984375 11.648437-26 26v88.800781c.015625 14.355469 11.648438 25.984375 26 26zm14-180.160156c.015625-15.234375 12.363281-27.582031 27.601562-27.597656h44.796876c15.238281.015625 27.585937 12.363281 27.601562 27.597656v39.359375h-100zm-28 65.359375c.007812-7.726563 6.269531-13.988281 14-14h128c7.730469.011719 13.992188 6.273437 14 14v88.800781c-.007812 7.730469-6.269531 13.992188-14 14h-128c-7.730469-.007812-13.992188-6.269531-14-14zm0 0"/><path d="m217.398438 269.273438c4.859374 0 8.796874-3.9375 8.796874-8.792969s-3.9375-8.792969-8.792968-8.792969c-4.855469 0-8.792969 3.9375-8.792969 8.792969.003906 4.855469 3.9375 8.789062 8.789063 8.792969zm0-12c1.773437 0 3.210937 1.433593 3.210937 3.207031 0 1.773437-1.4375 3.207031-3.207031 3.207031-1.773438 0-3.210938-1.433594-3.210938-3.207031.003906-1.769531 1.4375-3.207031 3.207032-3.207031zm0 0"/><path d="m274.601562 269.273438c4.855469 0 8.792969-3.9375 8.792969-8.792969s-3.9375-8.792969-8.792969-8.792969c-4.859374 0-8.792968 3.9375-8.792968 8.792969.003906 4.855469 3.9375 8.789062 8.792968 8.792969zm0-12c1.769532 0 3.207032 1.4375 3.207032 3.207031 0 1.773437-1.4375 3.207031-3.210938 3.207031-1.769531 0-3.207031-1.4375-3.207031-3.207031.003906-1.769531 1.4375-3.207031 3.210937-3.207031zm0 0"/><path d="m188.792969 269.273438c4.855469 0 8.792969-3.9375 8.792969-8.792969s-3.9375-8.792969-8.792969-8.792969-8.792969 3.9375-8.792969 8.792969c.003906 4.855469 3.9375 8.789062 8.792969 8.792969zm0-12c1.773437 0 3.207031 1.4375 3.207031 3.207031 0 1.773437-1.4375 3.207031-3.207031 3.207031-1.773438 0-3.207031-1.4375-3.207031-3.207031s1.4375-3.207031 3.207031-3.207031zm0 0"/><path d="m303.207031 269.273438c4.855469 0 8.792969-3.9375 8.792969-8.792969s-3.933594-8.792969-8.792969-8.792969c-4.855469 0-8.792969 3.9375-8.792969 8.792969.003907 4.855469 3.9375 8.789062 8.792969 8.792969zm0-12c1.773438 0 3.207031 1.433593 3.207031 3.207031.003907 1.773437-1.433593 3.207031-3.207031 3.207031-1.769531 0-3.207031-1.433594-3.207031-3.207031.003906-1.769531 1.4375-3.207031 3.207031-3.207031zm0 0"/><path d="m246 269.273438c4.855469 0 8.792969-3.9375 8.792969-8.792969s-3.9375-8.792969-8.792969-8.792969-8.792969 3.9375-8.792969 8.792969c.003907 4.855469 3.9375 8.789062 8.792969 8.792969zm0-12c1.773438 0 3.207031 1.433593 3.210938 3.207031 0 1.773437-1.4375 3.207031-3.210938 3.207031-1.769531 0-3.207031-1.433594-3.207031-3.207031 0-1.769531 1.4375-3.207031 3.207031-3.207031zm0 0"/></g></svg>